<?xml version="1.0" encoding="UTF-8" standalone="no"?>
<!-- Created with Inkscape (http://www.inkscape.org/) -->

<svg
   width="500"
   height="500"
   viewBox="0 0 132.29166 132.29167"
   version="1.1"
   id="svg1"
   inkscape:version="1.4.2 (ebf0e940, 2025-05-08)"
   sodipodi:docname="dove_logo.svg"
   xml:space="preserve"
   xmlns:inkscape="http://www.inkscape.org/namespaces/inkscape"
   xmlns:sodipodi="http://sodipodi.sourceforge.net/DTD/sodipodi-0.dtd"
   xmlns="http://www.w3.org/2000/svg"
   xmlns:svg="http://www.w3.org/2000/svg"><sodipodi:namedview
     id="namedview1"
     pagecolor="#505050"
     bordercolor="#eeeeee"
     borderopacity="1"
     inkscape:showpageshadow="0"
     inkscape:pageopacity="0"
     inkscape:pagecheckerboard="0"
     inkscape:deskcolor="#505050"
     inkscape:document-units="mm"
     inkscape:zoom="0.82044647"
     inkscape:cx="15.235607"
     inkscape:cy="362.60745"
     inkscape:window-width="1680"
     inkscape:window-height="1050"
     inkscape:window-x="0"
     inkscape:window-y="0"
     inkscape:window-maximized="0"
     inkscape:current-layer="text10"
     showguides="true"><sodipodi:guide
       position="23.701006,82.651121"
       orientation="0,-1"
       id="guide12"
       inkscape:locked="false" /></sodipodi:namedview><defs
     id="defs1" /><g
     inkscape:label="Layer 1"
     inkscape:groupmode="layer"
     id="layer1"><g
       id="text10"
       style="font-weight:bold;font-size:45.1556px;line-height:1.23;font-family:Arial;-inkscape-font-specification:'Arial Bold';letter-spacing:-0.132292px;word-spacing:0px;fill:#333333;stroke-width:0.7"
       aria-label="DOVE"><path
         id="path11"
         d="M 23.700879,49.984029 V 82.307637 H 35.9823 c 2.410651,0 4.33588,-0.228008 5.776391,-0.683679 1.925581,-0.617362 3.454455,-1.477256 4.586284,-2.579687 1.499307,-1.45521 2.653354,-3.358908 3.461804,-5.710763 0.661459,-1.925581 0.992187,-4.218632 0.992187,-6.879167 0,-3.028013 -0.352777,-5.570603 -1.058333,-7.628475 -0.705556,-2.072572 -1.734833,-3.82193 -3.08715,-5.247741 -1.352316,-1.425812 -2.976388,-2.417998 -4.872571,-2.976563 -1.411113,-0.411574 -3.461629,-0.617533 -6.151562,-0.617533 z m 2.878377,6.430098 c 0.02195,-0.0013 0.04626,0.0046 0.06408,0.01705 0.0285,0.01996 0.257238,0.286908 0.507979,0.593245 0.250741,0.306336 0.763153,0.855269 1.138949,1.220081 0.375796,0.364811 0.981485,0.886921 1.346171,1.160135 0.364686,0.273214 1.462802,1.028215 2.440161,1.677417 1.185892,0.787718 1.89223,1.292959 2.122868,1.518771 0.190081,0.186105 0.607057,0.68439 0.927075,1.107426 0.320017,0.423036 0.797364,0.986252 1.0604,1.251603 0.263035,0.265352 0.630408,0.584676 0.816488,0.709517 0.186081,0.124841 0.520222,0.311379 0.74259,0.414445 0.307236,0.142403 0.496334,0.193328 0.787549,0.21239 0.335983,0.02199 0.41766,0.0079 0.663009,-0.113688 0.153915,-0.07625 0.440303,-0.259357 0.636137,-0.40721 0.195835,-0.147852 0.499343,-0.428823 0.674377,-0.624251 0.175035,-0.195428 0.44559,-0.51058 0.601514,-0.700216 0.214587,-0.260984 0.370816,-0.389753 0.643371,-0.529167 0.312943,-0.160072 0.410552,-0.183968 0.744141,-0.183968 0.304546,0 0.436011,0.02721 0.637171,0.131258 0.159891,0.0827 0.291183,0.199691 0.355017,0.316777 0.05567,0.102112 0.14795,0.316957 0.205155,0.47749 0.08732,0.245048 0.147008,0.320174 0.373104,0.468189 0.148117,0.09697 0.295867,0.234048 0.328145,0.304891 0.03127,0.06863 0.04644,0.136092 0.03514,0.152445 -1.96e-4,2.37e-4 -8.23e-4,8.23e-4 -0.001,0.001 l -5.17e-4,5.16e-4 c -0.01674,0.01138 -0.14228,-0.03615 -0.282153,-0.10697 -0.142095,-0.07194 -0.348744,-0.130741 -0.459404,-0.130741 -0.110661,0 -0.339646,0.05076 -0.508496,0.112654 -0.16885,0.06189 -0.385915,0.187255 -0.482658,0.278536 -0.09674,0.09128 -0.221731,0.239268 -0.277502,0.329179 -0.05577,0.08991 -0.137083,0.304828 -0.180868,0.477491 -0.04379,0.172664 -0.115463,0.707687 -0.159163,1.189074 -0.0437,0.481386 -0.127485,1.064145 -0.186552,1.295012 -0.05906,0.230868 -0.223397,0.6607 -0.364836,0.95498 -0.141439,0.294281 -0.369186,0.682575 -0.505912,0.862997 -0.136728,0.180423 -0.432765,0.50018 -0.657841,0.71055 -0.225077,0.21037 -0.576089,0.500196 -0.780314,0.643889 -0.204224,0.143691 -0.54341,0.358906 -0.753443,0.478524 -0.250135,0.142455 -0.401921,0.266841 -0.4408,0.360701 -0.03265,0.07881 -0.05216,0.236173 -0.04289,0.349333 0.01461,0.178192 0.0501,0.227524 0.264067,0.37052 0.208577,0.139398 0.311349,0.169383 0.659391,0.191719 0.337892,0.02169 0.428544,0.04705 0.503845,0.140043 0.05053,0.0624 0.149674,0.113172 0.220142,0.113172 0.07047,0 0.178505,0.05373 0.239778,0.119372 0.06127,0.06564 0.128464,0.189803 0.149862,0.275953 0.0152,0.06118 0.0245,0.09906 0.01809,0.11007 -1.41e-4,2e-4 -8.8e-4,8.56e-4 -0.001,0.001 l -5.17e-4,5.17e-4 -5.16e-4,5.16e-4 -5.17e-4,5.17e-4 c -2.06e-4,9.4e-5 -0.0013,4.45e-4 -0.0016,5.17e-4 h -5.17e-4 c -0.01707,0.002 -0.06771,-0.04708 -0.176734,-0.152962 -0.111236,-0.108031 -0.222314,-0.196371 -0.247013,-0.196371 -0.0247,0 -0.04496,0.01342 -0.04496,0.02946 0,0.01604 0.03815,0.102633 0.08475,0.192753 0.06466,0.125035 0.07161,0.193166 0.02894,0.286804 -0.03075,0.06749 -0.134394,0.160645 -0.230477,0.207223 -0.07406,0.0359 -0.113913,0.05367 -0.122473,0.05323 l -5.17e-4,-5.16e-4 h -5.17e-4 v -5.17e-4 -5.17e-4 -5.17e-4 c 7.3e-5,-2.12e-4 3.9e-4,-0.0013 5.17e-4,-0.0015 0.0042,-0.0064 0.02291,-0.02172 0.05426,-0.04547 0.05835,-0.04418 0.136131,-0.105623 0.1726,-0.136943 0.03647,-0.03132 0.06556,-0.08612 0.06511,-0.121439 -4.41e-4,-0.03532 -0.01836,-0.08954 -0.03979,-0.120923 -0.02144,-0.03138 -0.13204,-0.119874 -0.24598,-0.196371 -0.180374,-0.121099 -0.220316,-0.129983 -0.308508,-0.06821 -0.08848,0.06198 -0.117164,0.05492 -0.227893,-0.05581 -0.07706,-0.07705 -0.188955,-0.126607 -0.285254,-0.126607 -0.08713,0 -0.173172,-0.02406 -0.191203,-0.05323 -0.01803,-0.02917 -0.09629,-0.05271 -0.174149,-0.05271 -0.05509,0 -0.08958,4.87e-4 -0.09819,0.01033 v 5.17e-4 l -5.16e-4,5.17e-4 c -1.13e-4,2.21e-4 -4.25e-4,0.0013 -5.17e-4,0.0015 -7.2e-5,2.38e-4 -4.65e-4,0.0013 -5.17e-4,0.0015 v 5.17e-4 c -7.64e-4,0.0185 0.04824,0.05953 0.15658,0.148828 0.109368,0.09015 0.234349,0.232293 0.277502,0.315743 0.04315,0.08345 0.07796,0.194508 0.07751,0.247014 -2.79e-4,0.03259 -0.003,0.05227 -0.0083,0.05891 -1.97e-4,2.05e-4 -8.27e-4,8.6e-4 -0.001,0.001 l -5.17e-4,5.17e-4 c -2.23e-4,1.09e-4 -0.0013,4.4e-4 -0.0015,5.17e-4 -2.41e-4,4.4e-5 -0.0013,-1.3e-5 -0.0016,0 -2.59e-4,-1.9e-5 -0.0013,5e-5 -0.0016,0 -2.77e-4,-8.3e-5 -0.0013,-9.2e-4 -0.0016,-0.001 -0.0071,-0.0035 -0.01702,-0.01595 -0.03049,-0.03721 -0.03368,-0.05317 -0.06336,-0.02111 -0.109554,0.118856 -0.03472,0.105197 -0.08201,0.203094 -0.10542,0.217558 -0.0029,0.0018 -0.0064,0.0013 -0.0088,0 -0.0162,-0.0117 -0.02036,-0.09377 -0.0083,-0.201022 0.02146,-0.190442 0.0027,-0.254122 -0.117306,-0.396875 -0.07872,-0.09355 -0.166202,-0.155859 -0.194303,-0.138492 -0.03036,0.01877 -0.01799,0.08283 0.03101,0.157613 0.04535,0.06921 0.08268,0.158218 0.08268,0.19792 0,0.03971 -0.05546,0.124151 -0.12299,0.187586 -0.06753,0.06344 -0.177765,0.115238 -0.245463,0.115238 -0.0486,0 -0.07775,-0.0011 -0.08475,-0.0093 l -5.17e-4,-5.17e-4 v -5.17e-4 l -5.17e-4,-5.17e-4 v -5.17e-4 -5.16e-4 l -5.17e-4,-5.17e-4 v -5.17e-4 c -3.52e-4,-0.01402 0.03727,-0.04299 0.116272,-0.102836 0.08417,-0.06378 0.159242,-0.119865 0.166915,-0.12454 v -5.17e-4 h 5.17e-4 v -5.17e-4 -5.16e-4 -5.17e-4 c -4.9e-5,-2.48e-4 -4.27e-4,-0.0013 -5.17e-4,-0.0015 -0.0076,-0.01921 -0.08335,-0.108017 -0.179834,-0.210324 -0.193581,-0.205255 -0.193317,-0.205099 -0.464571,-0.05839 -0.10206,0.0552 -0.16371,0.08223 -0.174666,0.07906 h -5.17e-4 l -5.17e-4,-5.17e-4 v -5.16e-4 l -5.17e-4,-5.17e-4 v -5.17e-4 l 5.17e-4,-5.17e-4 v -5.17e-4 c 0.0016,-0.005 0.01213,-0.01562 0.03204,-0.03152 0.08154,-0.06513 0.115741,-0.132934 0.09457,-0.188102 -0.01889,-0.04924 -0.09268,-0.0863 -0.171566,-0.0863 -0.08362,0 -0.202604,0.06411 -0.300757,0.162264 -0.103858,0.103858 -0.180827,0.144218 -0.213424,0.111621 -0.02804,-0.02803 -0.03456,-0.103098 -0.01447,-0.166398 0.02009,-0.0633 0.111908,-0.160814 0.204122,-0.217041 0.09221,-0.05623 0.209393,-0.10221 0.260449,-0.102319 0.05105,-1.09e-4 0.09302,-0.02241 0.09302,-0.04909 0,-0.02667 -0.125368,-0.126854 -0.278536,-0.222725 -0.208445,-0.130472 -0.334526,-0.172754 -0.500228,-0.167949 -0.14223,0.0041 -0.230836,-0.01891 -0.248564,-0.06511 -0.02176,-0.05671 -0.06984,-0.06026 -0.226343,-0.01705 -0.109163,0.03014 -0.289603,0.04004 -0.401009,0.02222 -0.162419,-0.02597 -0.26768,5.43e-4 -0.530717,0.133325 -0.229902,0.116054 -0.527083,0.35791 -0.994254,0.809253 -0.366625,0.354204 -0.805313,0.735929 -0.974618,0.84801 -0.169306,0.11208 -0.479524,0.28264 -0.689363,0.378788 -0.209838,0.09615 -0.507887,0.201114 -0.662492,0.233578 -0.154604,0.03246 -0.393572,0.05709 -0.530717,0.05478 -0.137145,-0.0023 -0.314577,-0.02806 -0.394808,-0.05736 h -5.17e-4 c -0.08023,-0.0293 -0.145728,-0.0792 -0.145728,-0.110588 0,-0.03139 0.09869,-0.187259 0.219109,-0.346749 0.105363,-0.139553 0.177902,-0.249571 0.17725,-0.26665 v -5.17e-4 -5.17e-4 h -5.17e-4 v -5.16e-4 h -5.17e-4 v -5.17e-4 h -5.17e-4 -5.16e-4 -5.17e-4 c -6e-4,1.25e-4 -0.0018,6.52e-4 -0.0026,0.001 -0.02559,0.01219 -0.232704,0.113638 -0.460437,0.225826 -0.323793,0.15951 -0.495599,0.209994 -0.789099,0.230994 -0.304966,0.02182 -0.371445,0.01306 -0.35295,-0.04702 0.01252,-0.04066 0.217394,-0.205408 0.454753,-0.36587 0.237358,-0.160462 0.448023,-0.309038 0.468705,-0.330212 3.23e-4,-3.31e-4 0.0013,-0.0012 0.0015,-0.0015 l 5.17e-4,-5.17e-4 v -5.17e-4 -5.17e-4 -5.16e-4 -5.17e-4 l -5.17e-4,-5.17e-4 -5.17e-4,-5.17e-4 h -5.16e-4 l -5.17e-4,-5.16e-4 c -0.01797,-0.0078 -0.156226,0.02087 -0.336414,0.0708 -0.20593,0.05707 -0.582383,0.140146 -0.836641,0.184485 -0.254258,0.04434 -0.572692,0.08055 -0.707451,0.0801 -0.134758,-4.41e-4 -0.275826,-0.02043 -0.313676,-0.04444 -0.05639,-0.03577 -0.05639,-0.05353 0,-0.09715 0.03785,-0.02927 0.176188,-0.09485 0.307475,-0.145727 0.131287,-0.05088 0.632242,-0.259739 1.113627,-0.464055 0.481386,-0.204318 1.20671,-0.537418 1.611788,-0.740523 0.405079,-0.203104 0.989956,-0.527549 1.299663,-0.720886 0.309707,-0.193336 0.778189,-0.511074 1.040763,-0.7059 0.262574,-0.194825 0.62025,-0.495348 0.7953,-0.668177 0.175049,-0.172829 0.566938,-0.628764 0.870748,-1.012858 0.30381,-0.384093 0.601481,-0.776019 0.661458,-0.870747 0.05826,-0.09201 0.08428,-0.134891 0.07958,-0.147278 v -5.17e-4 l -5.17e-4,-5.17e-4 v -5.17e-4 h -5.16e-4 l -5.17e-4,-5.16e-4 h -5.17e-4 l -5.17e-4,-5.17e-4 c -0.0084,-0.0041 -0.03249,0.0063 -0.07235,0.02377 -0.05745,0.02513 -0.206629,0.0556 -0.331246,0.06821 -0.203794,0.02063 -0.243345,0.0044 -0.397391,-0.160714 -0.162945,-0.17465 -0.179325,-0.179958 -0.33073,-0.113688 -0.08752,0.03831 -0.249452,0.07051 -0.360184,0.07183 -0.145146,0.0017 -0.237895,-0.03377 -0.331763,-0.12764 -0.07161,-0.07161 -0.130225,-0.167303 -0.130225,-0.212391 0,-0.06241 -0.05985,-0.08201 -0.251664,-0.08217 -0.160252,-1.25e-4 -0.319618,-0.0403 -0.437699,-0.110588 -0.102112,-0.06078 -0.215713,-0.148538 -0.252181,-0.195337 -0.03647,-0.0468 -0.06615,-0.1399 -0.06615,-0.206705 0,-0.08917 -0.03915,-0.13038 -0.146244,-0.154513 -0.08023,-0.01808 -0.27071,-0.07016 -0.423747,-0.116272 -0.153037,-0.04611 -0.350043,-0.154079 -0.437699,-0.239779 -0.112802,-0.110285 -0.159681,-0.206549 -0.159681,-0.329178 0,-0.162163 -0.01736,-0.17891 -0.278019,-0.26355 -0.153168,-0.04974 -0.358906,-0.151143 -0.45682,-0.225309 -0.09791,-0.07417 -0.210997,-0.214797 -0.251664,-0.312126 -0.04067,-0.09733 -0.0739,-0.237218 -0.0739,-0.311092 0,-0.08532 -0.02999,-0.134359 -0.08165,-0.134359 -0.04473,0 -0.193635,-0.05742 -0.331246,-0.127641 -0.137611,-0.07022 -0.319926,-0.200691 -0.404626,-0.289904 -0.103127,-0.10862 -0.152347,-0.214277 -0.149345,-0.319878 0.0025,-0.08673 0.0298,-0.205292 0.06098,-0.263549 0.03118,-0.05825 0.05684,-0.119404 0.05684,-0.135909 0,-0.01651 -0.03838,-0.02997 -0.08527,-0.02997 -0.04688,0 -0.23479,-0.07142 -0.417546,-0.158646 -0.182755,-0.08722 -0.406877,-0.234779 -0.49816,-0.328146 -0.09128,-0.09337 -0.165882,-0.210177 -0.165882,-0.259415 0,-0.04924 0.03794,-0.121266 0.08423,-0.159681 0.04629,-0.03842 0.183423,-0.08413 0.304891,-0.101802 0.09145,-0.01331 0.145194,-0.02181 0.153996,-0.03307 l 5.16e-4,-5.17e-4 5.17e-4,-5.17e-4 c 7e-5,-2.2e-4 -3.8e-5,-0.0013 0,-0.0015 v -5.17e-4 c -2.7e-5,-2.29e-4 -4.57e-4,-0.0013 -5.17e-4,-0.0016 v -5.17e-4 c -1.24e-4,-2.39e-4 -8.76e-4,-0.0013 -0.001,-0.0016 -0.01218,-0.01581 -0.09201,-0.03965 -0.251148,-0.08682 -0.175049,-0.05188 -0.416409,-0.151132 -0.536401,-0.220659 -0.119992,-0.06953 -0.292947,-0.211501 -0.384473,-0.315743 -0.09153,-0.104243 -0.166398,-0.236704 -0.166398,-0.294039 0,-0.07027 0.03892,-0.107021 0.119373,-0.112654 0.06564,-0.0046 0.155191,-0.0058 0.198954,-0.0031 0.04376,0.0027 0.198807,0.01812 0.344682,0.03462 0.126112,0.01426 0.188054,0.0188 0.197921,0.01137 h 5.16e-4 l 5.17e-4,-5.17e-4 v -5.16e-4 -5.17e-4 -5.17e-4 -5.17e-4 -5.16e-4 -5.17e-4 l -5.17e-4,-5.17e-4 c -0.0043,-0.0071 -0.02709,-0.01897 -0.06563,-0.03617 -0.07294,-0.03256 -0.32712,-0.151832 -0.564823,-0.2651 -0.32136,-0.153132 -0.501543,-0.282089 -0.7028,-0.502295 -0.148864,-0.162882 -0.270784,-0.34191 -0.270784,-0.397908 0,-0.07205 0.03724,-0.101803 0.127124,-0.101803 0.06986,0 0.278637,0.04569 0.464054,0.101803 0.185416,0.05611 0.429729,0.126556 0.542603,0.15658 0.09171,0.0244 0.162207,0.03718 0.17725,0.03307 2.48e-4,-9.1e-5 0.0013,-4.12e-4 0.0015,-5.16e-4 v -5.17e-4 h 5.17e-4 v -5.17e-4 -5.17e-4 h 5.17e-4 v -5.16e-4 h -5.17e-4 v -5.17e-4 -5.17e-4 l -5.17e-4,-5.17e-4 -5.16e-4,-5.16e-4 c -1.88e-4,-2.21e-4 -2.84e-4,-8.01e-4 -5.17e-4,-0.001 -0.01495,-0.01495 -0.198768,-0.132848 -0.408244,-0.261999 -0.209476,-0.129151 -0.547029,-0.358344 -0.750342,-0.50953 -0.203314,-0.151185 -0.476106,-0.416614 -0.606164,-0.589628 -0.130057,-0.173014 -0.236162,-0.359503 -0.236162,-0.414962 0,-0.05611 0.0365,-0.101286 0.08268,-0.101286 0.04564,0 0.397691,0.158176 0.782381,0.350883 0.384689,0.192709 0.730221,0.374883 0.767395,0.405143 0.03717,0.03026 0.07941,0.04306 0.09405,0.02842 v -5.16e-4 h 5.17e-4 v -5.17e-4 -5.17e-4 c 2.3e-5,-1.8e-4 -10e-7,-0.0014 0,-0.0016 v -5.17e-4 -5.17e-4 c -0.0078,-0.02928 -0.173856,-0.172413 -0.38654,-0.331762 -0.226856,-0.169948 -0.615268,-0.513387 -0.863513,-0.763261 -0.248246,-0.249874 -0.516891,-0.565801 -0.596863,-0.702283 -0.07997,-0.136482 -0.145728,-0.276689 -0.145728,-0.311609 0,-0.04329 0.05505,-0.0528 0.1726,-0.02945 0.09482,0.01883 0.41105,0.192976 0.702799,0.387056 0.291749,0.194081 0.646983,0.421582 0.789099,0.505396 0.135455,0.07988 0.256292,0.137286 0.276986,0.132808 h 5.17e-4 l 5.17e-4,-5.17e-4 h 5.16e-4 v -5.17e-4 h 5.17e-4 v -5.16e-4 -5.17e-4 -5.17e-4 -5.17e-4 c -0.0057,-0.02421 -0.176045,-0.183177 -0.391707,-0.365352 -0.226271,-0.191133 -0.638246,-0.583092 -0.915707,-0.870748 -0.307075,-0.31836 -0.571837,-0.650274 -0.676444,-0.848527 -0.09452,-0.179134 -0.171566,-0.34032 -0.171566,-0.358118 0,-0.0178 0.01878,-0.03256 0.04186,-0.03256 0.02308,0 0.422722,0.286558 0.888318,0.636654 0.465595,0.350095 0.868612,0.636651 0.895552,0.636654 h 5.17e-4 l 5.17e-4,-5.17e-4 h 5.17e-4 5.16e-4 v -5.17e-4 h 5.17e-4 v -5.17e-4 h 5.17e-4 v -5.16e-4 c 3.5e-5,-1.77e-4 -1.3e-5,-0.0014 0,-0.0016 -9.45e-4,-0.02584 -0.14989,-0.199286 -0.3514,-0.407727 -0.218584,-0.226106 -0.495682,-0.542431 -0.615983,-0.703316 -0.120302,-0.160884 -0.290417,-0.447439 -0.377755,-0.636654 -0.08734,-0.189214 -0.174534,-0.454497 -0.193786,-0.589628 -0.01925,-0.135132 -0.01368,-0.258806 0.0124,-0.274918 0.0098,-0.006 0.02197,-0.0096 0.03514,-0.01034 z m 7.123596,0.03979 c 0.02675,-0.001 0.05738,0.01639 0.07648,0.04651 0.02547,0.04021 0.04658,0.242922 0.04703,0.450618 4.41e-4,0.207697 0.03717,0.589941 0.08165,0.849044 0.04449,0.259102 0.142633,0.685689 0.218074,0.948263 0.07544,0.262574 0.22926,0.675496 0.341582,0.917773 0.112323,0.242276 0.292974,0.588702 0.401525,0.769462 0.108551,0.18076 0.327772,0.503386 0.487309,0.717269 0.159538,0.213883 0.555161,0.676614 0.879016,1.027844 0.323854,0.351231 0.668305,0.7491 0.765328,0.884184 0.09702,0.135085 0.291413,0.483914 0.432532,0.775663 0.141118,0.291749 0.37411,0.709814 0.517281,0.928626 0.14317,0.218812 0.382074,0.507331 0.531234,0.641304 0.149159,0.133973 0.404011,0.31307 0.566374,0.397909 0.159825,0.08351 0.29146,0.166049 0.295589,0.185002 v 5.16e-4 5.17e-4 c -0.0018,0.01768 -0.06172,0.05865 -0.134876,0.09198 -0.07431,0.03386 -0.211962,0.05992 -0.305407,0.05788 -0.09345,-0.002 -0.276957,-0.03677 -0.408244,-0.07752 -0.131287,-0.04075 -0.453065,-0.184439 -0.714685,-0.31936 -0.26162,-0.134921 -0.60753,-0.331879 -0.768946,-0.4377 -0.161416,-0.10582 -0.488326,-0.389722 -0.72657,-0.630969 -0.238244,-0.241249 -0.72236,-0.820076 -1.075387,-1.286226 -0.353029,-0.46615 -0.719049,-0.921371 -0.813387,-1.011308 -0.09434,-0.08994 -0.493422,-0.344608 -0.887284,-0.566374 -0.393861,-0.221764 -0.768865,-0.450792 -0.833024,-0.508496 -0.06416,-0.05771 -0.153707,-0.213438 -0.198955,-0.346232 -0.04525,-0.132794 -0.08216,-0.309498 -0.08216,-0.392741 0,-0.09147 0.03464,-0.164783 0.08733,-0.185001 0.06095,-0.02339 0.173895,0.05718 0.375688,0.267167 0.158743,0.165189 0.2967,0.30024 0.306441,0.30024 0.0097,0 -0.09848,-0.227902 -0.240295,-0.506429 -0.146006,-0.286777 -0.296245,-0.678619 -0.346233,-0.903304 -0.05265,-0.236645 -0.07377,-0.472764 -0.05271,-0.584977 0.03092,-0.164852 0.04573,-0.179333 0.11989,-0.117823 0.04655,0.03861 0.208244,0.261144 0.359151,0.494544 0.150907,0.233399 0.31173,0.455385 0.357601,0.492993 0.01571,0.01288 0.0272,0.01854 0.03359,0.01654 1.9e-4,-7.8e-5 0.0014,-4.23e-4 0.0016,-5.16e-4 l 5.17e-4,-5.17e-4 v -5.17e-4 l 5.16e-4,-5.17e-4 c 0.01295,-0.01411 -0.01164,-0.09247 -0.07803,-0.256832 -0.06894,-0.170689 -0.161882,-0.451126 -0.206706,-0.623217 -0.04483,-0.172091 -0.08165,-0.482258 -0.08165,-0.689364 0,-0.228153 0.02734,-0.414309 0.06976,-0.472323 0.06325,-0.0865 0.08405,-0.06335 0.21394,0.236162 0.07414,0.170949 0.143114,0.30433 0.15968,0.311092 l 5.17e-4,5.17e-4 h 5.17e-4 5.17e-4 v -5.17e-4 h 5.16e-4 5.17e-4 v -5.17e-4 -5.17e-4 l 5.17e-4,-5.16e-4 c 0.0085,-0.01864 -0.0012,-0.155645 -0.02274,-0.311093 -0.02224,-0.160462 -0.03168,-0.457886 -0.02067,-0.660941 0.01101,-0.203054 0.05808,-0.483294 0.104386,-0.622701 0.0463,-0.139408 0.108804,-0.268653 0.13901,-0.287321 0.0076,-0.0047 0.01589,-0.0069 0.0248,-0.0072 z m 8.940023,7.964889 c -0.05787,-0.0028 -0.135373,0.009 -0.195854,0.03204 -0.142161,0.05405 -0.143583,0.05864 -0.05168,0.160197 0.05213,0.05761 0.124892,0.104903 0.161747,0.104903 0.03685,0 0.104747,-0.01434 0.150895,-0.03204 0.04614,-0.01771 0.08372,-0.07593 0.08372,-0.129191 0,-0.05326 -0.04473,-0.110862 -0.09922,-0.128158 -0.01362,-0.0043 -0.03032,-0.0068 -0.04961,-0.0078 z m -5.099947,9.055261 c -0.04197,9.57e-4 -0.07125,0.01928 -0.112138,0.05013 -0.07706,0.05813 -0.104223,0.120241 -0.08268,0.188102 0.01768,0.05572 0.08596,0.135163 0.151929,0.176734 0.06597,0.04157 0.178819,0.106581 0.25063,0.144177 0.07181,0.0376 0.191036,0.05353 0.2651,0.03566 0.07406,-0.01787 0.188088,-0.0523 0.253732,-0.07648 0.06564,-0.02418 0.119372,-0.06864 0.119372,-0.0987 v -5.17e-4 c -0.0029,-0.03113 -0.191589,-0.145123 -0.421679,-0.254765 -0.249772,-0.11902 -0.354315,-0.165927 -0.424264,-0.164331 z" /><path
         style="font-size:22.5778px"
         d="m 52.861152,66.245052 q 0,-2.469447 0.738629,-4.145143 0.551216,-1.234724 1.499307,-2.215888 0.959115,-0.981164 2.09462,-1.45521 1.510332,-0.63941 3.483684,-0.63941 3.571879,0 5.710596,2.215888 2.149742,2.215887 2.149742,6.162593 0,3.913632 -2.127693,6.12952 -2.127693,2.204863 -5.688548,2.204863 -3.604951,0 -5.732644,-2.193839 -2.127693,-2.204863 -2.127693,-6.063374 z m 3.362416,-0.110243 q 0,2.745055 1.267797,4.167192 1.267796,1.411112 3.2191,1.411112 1.951304,0 3.197052,-1.400088 1.256772,-1.411113 1.256772,-4.222313 0,-2.778128 -1.223699,-4.145144 -1.212675,-1.367015 -3.230125,-1.367015 -2.01745,0 -3.252173,1.389064 -1.234724,1.37804 -1.234724,4.167192 z M 75.075152,74.226657 69.29841,58.065009 h 3.538806 l 4.090021,11.961384 3.95773,-11.961384 h 3.461636 l -5.787767,16.161648 z m 10.803831,0 V 58.065009 h 11.983433 v 2.73403 h -8.720235 v 3.582903 h 8.113897 v 2.723007 h -8.113897 v 4.398702 h 9.028916 v 2.723006 z"
         id="path12" /></g></g></svg>
