<?xml version="1.0" encoding="UTF-8" standalone="no"?>
<!-- Created with Inkscape (http://www.inkscape.org/) -->

<svg
   width="2400"
   height="2400"
   viewBox="0 0 634.99996 635.00002"
   version="1.1"
   id="svg1"
   inkscape:version="1.4.2 (ebf0e940, 2025-05-08)"
   sodipodi:docname="dove_logo.svg"
   xml:space="preserve"
   xmlns:inkscape="http://www.inkscape.org/namespaces/inkscape"
   xmlns:sodipodi="http://sodipodi.sourceforge.net/DTD/sodipodi-0.dtd"
   xmlns="http://www.w3.org/2000/svg"
   xmlns:svg="http://www.w3.org/2000/svg"><sodipodi:namedview
     id="namedview1"
     pagecolor="#505050"
     bordercolor="#eeeeee"
     borderopacity="1"
     inkscape:showpageshadow="0"
     inkscape:pageopacity="0"
     inkscape:pagecheckerboard="0"
     inkscape:deskcolor="#505050"
     inkscape:document-units="mm"
     inkscape:zoom="0.11490758"
     inkscape:cx="1070.4255"
     inkscape:cy="1766.6372"
     inkscape:window-width="1680"
     inkscape:window-height="923"
     inkscape:window-x="0"
     inkscape:window-y="25"
     inkscape:window-maximized="0"
     inkscape:current-layer="text10"
     showguides="true"><sodipodi:guide
       position="23.701006,267.85945"
       orientation="0,-1"
       id="guide12"
       inkscape:locked="false" /></sodipodi:namedview><defs
     id="defs1" /><g
     inkscape:label="Layer 1"
     inkscape:groupmode="layer"
     id="layer1"><g
       id="text10"
       style="font-weight:bold;font-size:45.1556px;line-height:1.23;font-family:Arial;-inkscape-font-specification:'Arial Bold';letter-spacing:-0.132292px;word-spacing:0px;fill:#333333;stroke-width:0.7"
       aria-label="DOVE"><path
         id="path11"
         d="m 44.867547,224.60911 v 236.43998 h 89.835843 c 17.63337,0 31.71598,-1.66784 42.25299,-5.00098 14.0852,-4.51586 25.26857,-10.80579 33.54763,-18.86982 10.9671,-10.64453 19.40869,-24.56965 25.32232,-41.77295 4.83842,-14.08519 7.25764,-30.85834 7.25764,-50.31954 0,-22.14925 -2.58049,-40.74773 -7.74148,-55.80061 -5.16098,-15.1604 -12.68991,-27.95657 -22.58181,-38.38606 -9.89188,-10.42951 -21.7716,-17.68712 -35.64175,-21.77292 -10.32198,-3.01057 -25.32103,-4.5171 -44.99729,-4.5171 z m 21.054679,47.03474 c 0.16056,-0.01 0.338382,0.0336 0.468731,0.12476 0.208471,0.14596 1.881639,2.09865 3.715752,4.33945 1.834114,2.24077 5.582292,6.2561 8.331155,8.92462 2.748864,2.66851 7.179343,6.48763 9.846939,8.48613 2.667594,1.99849 10.700066,7.52116 17.849227,12.26994 8.67454,5.76198 13.84125,9.4577 15.52831,11.10947 1.39041,1.36132 4.44049,5.00615 6.78135,8.10057 2.34085,3.09442 5.83254,7.21423 7.75658,9.15518 1.92404,1.94101 4.6113,4.27679 5.97243,5.18998 1.36114,0.91319 3.80531,2.27767 5.43188,3.03157 2.24736,1.04162 3.63057,1.41416 5.76075,1.55358 2.45763,0.16089 3.05508,0.0577 4.84976,-0.8316 1.12585,-0.55777 3.22072,-1.89714 4.6532,-2.97865 1.43249,-1.08151 3.65257,-3.13675 4.93291,-4.56626 1.28034,-1.42952 3.25939,-3.73479 4.39994,-5.12191 1.56965,-1.90905 2.71243,-2.85096 4.70611,-3.87075 2.28911,-1.17089 3.0031,-1.34569 5.44323,-1.34569 2.22768,0 3.18932,0.19904 4.66076,0.96012 1.16956,0.60494 2.12994,1.4607 2.59687,2.31715 0.40721,0.74696 1.08222,2.31849 1.50066,3.49277 0.63872,1.79247 1.07533,2.34196 2.72917,3.42467 1.08344,0.70931 2.16421,1.712 2.4003,2.2302 0.22875,0.50202 0.3397,0.9955 0.25706,1.11513 -0.002,0.002 -0.006,0.006 -0.008,0.008 l -0.004,0.004 c -0.1224,0.0833 -1.04074,-0.26445 -2.06389,-0.78249 -1.03939,-0.52622 -2.55099,-0.95635 -3.36044,-0.95635 -0.80946,0 -2.48443,0.37131 -3.71953,0.82404 -1.2351,0.45273 -2.82289,1.36975 -3.53054,2.03744 -0.70763,0.66768 -1.62191,1.75017 -2.02986,2.40786 -0.40794,0.65768 -1.00273,2.22975 -1.32301,3.49274 -0.32032,1.26299 -0.84459,5.17657 -1.16424,8.69781 -0.31966,3.52123 -0.93253,7.78398 -1.36459,9.47273 -0.43201,1.68876 -1.63409,4.83286 -2.6687,6.98546 -1.03459,2.15259 -2.70051,4.99288 -3.70062,6.31262 -1.00014,1.31975 -3.16559,3.65871 -4.81196,5.19752 -1.64639,1.53881 -4.21397,3.65883 -5.70783,4.70991 -1.49385,1.05105 -3.97492,2.62531 -5.51126,3.50028 -1.82968,1.04205 -2.93997,1.95189 -3.22435,2.63845 -0.23883,0.57647 -0.38154,1.72757 -0.31374,2.5553 0.10687,1.30344 0.36648,1.66428 1.93159,2.71027 1.5257,1.01966 2.27746,1.23901 4.82331,1.40237 2.4716,0.15874 3.1347,0.34417 3.68551,1.0244 0.36961,0.45646 1.09483,0.82783 1.61028,0.82783 0.51548,0 1.30573,0.39302 1.75393,0.8732 0.44817,0.48013 0.93968,1.38836 1.09621,2.01852 0.11119,0.44752 0.1792,0.7246 0.13233,0.80514 -9e-4,0.002 -0.006,0.006 -0.007,0.008 l -0.004,0.004 -0.004,0.004 -0.004,0.004 c -0.002,6.9e-4 -0.009,0.004 -0.0118,0.004 h -0.004 c -0.12487,0.0137 -0.49529,-0.34437 -1.29278,-1.11889 -0.81366,-0.79021 -1.62617,-1.4364 -1.80684,-1.4364 -0.18067,0 -0.32887,0.0982 -0.32887,0.21549 0,0.11729 0.27906,0.75074 0.61992,1.40993 0.47298,0.91461 0.52382,1.41299 0.21169,2.09792 -0.22492,0.49368 -0.98306,1.17508 -1.68588,1.51579 -0.54173,0.26259 -0.83325,0.39259 -0.89587,0.38936 l -0.004,-0.004 h -0.004 v -0.004 -0.004 -0.004 c 5.3e-4,-0.002 0.003,-0.01 0.004,-0.0118 0.0307,-0.0468 0.16758,-0.15893 0.39691,-0.3326 0.42681,-0.32317 0.99576,-0.77262 1.26253,-1.0017 0.26677,-0.2291 0.47955,-0.62997 0.47626,-0.8883 -0.004,-0.25837 -0.1343,-0.65497 -0.29106,-0.88453 -0.15682,-0.22953 -0.96584,-0.87686 -1.79928,-1.43642 -1.3194,-0.88579 -1.61157,-0.95078 -2.25667,-0.49893 -0.64721,0.45336 -0.85703,0.40173 -1.66699,-0.40824 -0.56367,-0.5636 -1.38216,-0.92609 -2.08657,-0.92609 -0.63733,0 -1.26671,-0.17603 -1.39861,-0.38937 -0.13187,-0.21337 -0.70434,-0.38557 -1.27385,-0.38557 -0.40298,0 -0.65526,0.004 -0.71824,0.0757 v 0.004 l -0.004,0.004 c -8.2e-4,0.002 -0.004,0.01 -0.004,0.0118 -5.3e-4,0.002 -0.004,0.01 -0.004,0.0118 v 0.004 c -0.005,0.13536 0.35286,0.43544 1.14534,1.08863 0.80001,0.65944 1.71422,1.69919 2.02987,2.3096 0.31563,0.61042 0.57026,1.42276 0.56697,1.80685 -0.002,0.23838 -0.0219,0.38233 -0.0607,0.43092 -0.002,0.002 -0.006,0.006 -0.007,0.008 l -0.004,0.004 c -0.002,8e-4 -0.009,0.004 -0.011,0.004 -0.002,3.1e-4 -0.009,-10e-5 -0.0118,0 -0.002,-1.5e-4 -0.009,3.4e-4 -0.0118,0 -0.002,-6.2e-4 -0.009,-0.006 -0.0118,-0.008 -0.052,-0.0256 -0.12448,-0.1167 -0.22302,-0.27219 -0.24637,-0.38893 -0.46347,-0.15441 -0.80137,0.8694 -0.25396,0.76949 -0.59988,1.48559 -0.77111,1.59138 -0.0212,0.0137 -0.0468,0.01 -0.0643,0 -0.1185,-0.0856 -0.14893,-0.68589 -0.0607,-1.47042 0.15697,-1.39304 0.0198,-1.85885 -0.85806,-2.90306 -0.57583,-0.6843 -1.21573,-1.14007 -1.42128,-1.01305 -0.22208,0.13732 -0.13159,0.6059 0.22683,1.15293 0.33172,0.50625 0.60478,1.15731 0.60478,1.44773 0,0.29048 -0.40567,0.90814 -0.89964,1.37214 -0.49397,0.46406 -1.30031,0.84296 -1.79551,0.84296 -0.3555,0 -0.56872,-0.008 -0.61992,-0.068 l -0.004,-0.004 v -0.004 l -0.004,-0.004 v -0.004 -0.004 l -0.004,-0.004 v -0.004 c -0.003,-0.10255 0.27263,-0.31447 0.8505,-0.75226 0.6157,-0.46654 1.16483,-0.87678 1.22095,-0.91097 v -0.004 h 0.004 v -0.004 -0.004 -0.004 c -3.6e-4,-0.002 -0.004,-0.01 -0.004,-0.0118 -0.0556,-0.14046 -0.60968,-0.79011 -1.31544,-1.53845 -1.416,-1.50141 -1.41407,-1.50027 -3.39824,-0.42712 -0.74654,0.40378 -1.19749,0.60149 -1.27764,0.57831 h -0.004 l -0.004,-0.004 v -0.004 l -0.004,-0.004 v -0.004 l 0.004,-0.004 v -0.004 c 0.0118,-0.0365 0.0888,-0.11434 0.23436,-0.23056 0.59645,-0.47642 0.84663,-0.97238 0.69176,-1.37593 -0.13818,-0.36017 -0.67794,-0.63126 -1.25496,-0.63126 -0.61167,0 -1.482,0.46895 -2.19998,1.18692 -0.75969,0.7597 -1.3227,1.05493 -1.56114,0.81649 -0.20511,-0.20503 -0.2528,-0.75413 -0.10585,-1.21717 0.14694,-0.46302 0.81858,-1.17632 1.4931,-1.58761 0.6745,-0.41129 1.53166,-0.74764 1.90513,-0.74842 0.37342,-8.1e-4 0.68042,-0.16384 0.68042,-0.3591 0,-0.19507 -0.91704,-0.9279 -2.03743,-1.62918 -1.52473,-0.95436 -2.44698,-1.26366 -3.65905,-1.22851 -1.04039,0.03 -1.68852,-0.1383 -1.81819,-0.47626 -0.15917,-0.41483 -0.51086,-0.44078 -1.65565,-0.12475 -0.7985,0.22048 -2.11838,0.29289 -2.93329,0.16247 -1.18806,-0.18997 -1.95802,0.004 -3.88207,0.97525 -1.68169,0.84891 -3.8555,2.61802 -7.27275,5.91949 -2.68179,2.59094 -5.89069,5.38315 -7.12912,6.203 -1.23843,0.81984 -3.50761,2.06744 -5.04254,2.77075 -1.53491,0.70332 -3.71508,1.47111 -4.84598,1.70858 -1.13089,0.23743 -2.87889,0.4176 -3.88207,0.40071 -1.00319,-0.0177 -2.301064,-0.20526 -2.887936,-0.41959 h -0.0037 c -0.586865,-0.21433 -1.065968,-0.57934 -1.065968,-0.80893 0,-0.22961 0.721895,-1.36975 1.602734,-2.53638 0.770706,-1.0208 1.30131,-1.82557 1.29654,-1.95049 v -0.004 -0.004 h -0.004 v -0.004 h -0.004 v -0.004 h -0.004 -0.004 -0.004 c -0.004,8.9e-4 -0.0132,0.004 -0.0191,0.008 -0.187175,0.0892 -1.702171,0.83122 -3.367988,1.65186 -2.368473,1.16677 -3.625194,1.53606 -5.772081,1.68967 -2.230757,0.15952 -2.717035,0.0955 -2.581749,-0.34395 0.09159,-0.29741 1.590189,-1.50251 3.326415,-2.67625 1.73622,-1.17374 3.277187,-2.26053 3.428471,-2.41542 0.0023,-0.002 0.0094,-0.008 0.011,-0.0118 l 0.0037,-0.004 v -0.004 -0.004 -0.004 -0.004 l -0.0037,-0.004 -0.0037,-0.004 h -0.0037 l -0.0037,-0.004 c -0.131446,-0.0572 -1.142757,0.15263 -2.460792,0.51788 -1.506331,0.41744 -4.259999,1.02513 -6.11984,1.34945 -1.859841,0.32434 -4.189114,0.58922 -5.174844,0.58592 -0.985725,-0.004 -2.017606,-0.1495 -2.294471,-0.32507 -0.412481,-0.26164 -0.412481,-0.39155 0,-0.71063 0.276865,-0.21409 1.288776,-0.69381 2.249111,-1.06595 0.960334,-0.37218 4.624708,-1.89995 8.145931,-3.39446 3.521229,-1.49454 8.826811,-3.93111 11.789867,-5.41675 2.96306,-1.48567 7.24131,-3.85891 9.50675,-5.27314 2.26543,-1.41419 5.69228,-3.73839 7.61295,-5.16349 1.92067,-1.4251 4.53699,-3.62336 5.81744,-4.88757 1.28044,-1.26421 4.14703,-4.59926 6.36932,-7.40882 2.22231,-2.80956 4.3997,-5.67641 4.83843,-6.36931 0.42615,-0.67306 0.61649,-0.98671 0.58211,-1.07732 v -0.004 l -0.004,-0.004 v -0.004 h -0.004 l -0.004,-0.004 h -0.004 l -0.004,-0.004 c -0.0615,-0.03 -0.23765,0.046 -0.52922,0.17386 -0.42023,0.18388 -1.51144,0.40672 -2.42299,0.49895 -1.4907,0.15088 -1.78001,0.0323 -2.90682,-1.17559 -1.1919,-1.27752 -1.31172,-1.31635 -2.41922,-0.83161 -0.64018,0.28023 -1.82468,0.51578 -2.63466,0.52542 -1.06171,0.0118 -1.74014,-0.24702 -2.42677,-0.93366 -0.52381,-0.5238 -0.95257,-1.22378 -0.95257,-1.55358 0,-0.45652 -0.43779,-0.59989 -1.84087,-0.60107 -1.1722,-8.9e-4 -2.33793,-0.29477 -3.20166,-0.80891 -0.74694,-0.44459 -1.57791,-1.08652 -1.84466,-1.42886 -0.26677,-0.34231 -0.48387,-1.02333 -0.48387,-1.51199 0,-0.65226 -0.28638,-0.9537 -1.06974,-1.13023 -0.58687,-0.13221 -1.98019,-0.51321 -3.09962,-0.8505 -1.11943,-0.33729 -2.56049,-1.12707 -3.20167,-1.75393 -0.82512,-0.80671 -1.16803,-1.51087 -1.16803,-2.40787 0,-1.18617 -0.12699,-1.30868 -2.03365,-1.92781 -1.12039,-0.36383 -2.62532,-1.10557 -3.34154,-1.64807 -0.716185,-0.54254 -1.543392,-1.57121 -1.840862,-2.28313 -0.297491,-0.71196 -0.540562,-1.7352 -0.540562,-2.27559 0,-0.62409 -0.21937,-0.98278 -0.59725,-0.98278 -0.327192,0 -1.416397,-0.42003 -2.42299,-0.93369 -1.006594,-0.51364 -2.340187,-1.46801 -2.959748,-2.12058 -0.75435,-0.79453 -1.114385,-1.56737 -1.092426,-2.33983 0.01827,-0.6344 0.21798,-1.50165 0.446055,-1.9278 0.228075,-0.42608 0.415771,-0.87341 0.415771,-0.99414 0,-0.12082 -0.280739,-0.21923 -0.623729,-0.21923 -0.342918,0 -1.717437,-0.52242 -3.054255,-1.16046 -1.336812,-0.63799 -2.976214,-1.71735 -3.643929,-2.40031 -0.667693,-0.68299 -1.21339,-1.5374 -1.21339,-1.89755 0,-0.3602 0.277523,-0.88704 0.616124,-1.16805 0.338601,-0.28102 1.341698,-0.61538 2.23021,-0.74465 0.668935,-0.0974 1.06206,-0.15952 1.126446,-0.24189 l 0.0037,-0.004 0.0037,-0.004 c 5.12e-4,-0.002 -2.77e-4,-0.01 0,-0.0118 v -0.004 c -1.96e-4,-0.002 -0.0033,-0.01 -0.0037,-0.0118 v -0.004 c -8.91e-4,-0.002 -0.0065,-0.01 -0.0073,-0.0118 -0.08909,-0.11571 -0.673033,-0.29005 -1.837091,-0.63508 -1.280445,-0.37949 -3.045939,-1.1055 -3.923652,-1.61407 -0.877715,-0.5086 -2.142841,-1.54708 -2.812334,-2.30959 -0.669522,-0.76251 -1.217164,-1.73144 -1.217164,-2.15084 0,-0.514 0.284691,-0.78282 0.873186,-0.82404 0.480141,-0.0336 1.135188,-0.0424 1.455306,-0.0226 0.320092,0.0197 1.454227,0.1326 2.521269,0.25324 0.922483,0.10432 1.375574,0.13752 1.447748,0.0831 h 0.0037 l 0.0037,-0.004 v -0.004 -0.004 -0.004 -0.004 -0.004 -0.004 l -0.0037,-0.004 c -0.03146,-0.0519 -0.198157,-0.1387 -0.480069,-0.26458 -0.53354,-0.23816 -2.392809,-1.11061 -4.131553,-1.93914 -2.350677,-1.12013 -3.668675,-2.06342 -5.140822,-3.67417 -1.088907,-1.19146 -1.980726,-2.501 -1.980726,-2.91062 0,-0.52702 0.272402,-0.74467 0.929885,-0.74467 0.51101,0 2.038167,0.33423 3.394449,0.74467 1.356277,0.41043 3.143371,0.92573 3.969021,1.14536 0.670837,0.17857 1.186506,0.27195 1.296542,0.24189 0.0018,-6.7e-4 0.0094,-0.004 0.01101,-0.004 v -0.004 h 0.0037 v -0.004 -0.004 h 0.0037 v -0.004 h -0.0037 v -0.004 -0.004 l -0.0037,-0.004 -0.0037,-0.004 c -0.0013,-0.002 -0.0021,-0.006 -0.0037,-0.008 -0.109365,-0.10942 -1.453945,-0.97175 -2.986213,-1.91647 -1.532271,-0.9447 -4.001394,-2.6212 -5.488582,-3.72709 -1.487197,-1.10589 -3.482609,-3.04745 -4.433955,-4.31299 -0.951337,-1.26557 -1.727471,-2.6297 -1.727471,-3.03536 0,-0.41044 0.266989,-0.74089 0.604786,-0.74089 0.333845,0 2.909019,1.15703 5.722941,2.56663 2.813912,1.40963 5.341401,2.74218 5.613321,2.96352 0.27189,0.22137 0.580866,0.31497 0.687954,0.20789 v -0.004 h 0.0037 v -0.004 -0.004 c 1.68e-4,-8.9e-4 -8e-6,-0.01 0,-0.0118 v -0.004 -0.004 c -0.05705,-0.21418 -1.271719,-1.26116 -2.827453,-2.42675 -1.659401,-1.24313 -4.500547,-3.75533 -6.316403,-5.5831 -1.815865,-1.82777 -3.780943,-4.1387 -4.365919,-5.13705 -0.584963,-0.99832 -1.065967,-2.02391 -1.065967,-2.27934 0,-0.31665 0.402678,-0.38622 1.262529,-0.21542 0.693587,0.13771 3.00674,1.41158 5.140818,2.83122 2.134078,1.41967 4.732534,3.0838 5.772081,3.69687 0.990821,0.58431 1.874718,1.00422 2.02609,0.97145 h 0.0037 l 0.0037,-0.004 h 0.0037 v -0.004 h 0.0037 v -0.004 -0.004 -0.004 -0.004 c -0.04169,-0.177 -1.287728,-1.33989 -2.865248,-2.67246 -1.655121,-1.39809 -4.668626,-4.26519 -6.69819,-6.36933 -2.246185,-2.32872 -4.182858,-4.7566 -4.948036,-6.2068 -0.691392,-1.31031 -1.254966,-2.48936 -1.254966,-2.61955 0,-0.13024 0.137379,-0.23815 0.306196,-0.23815 0.168831,0 3.092117,2.0961 6.497847,4.65697 3.405722,2.56088 6.3537,4.65696 6.550761,4.65698 h 0.0037 l 0.0037,-0.004 h 0.0037 0.0037 v -0.004 h 0.0037 v -0.004 h 0.0037 v -0.004 c 2.55e-4,-9e-4 -9.5e-5,-0.01 0,-0.0118 -0.0069,-0.18899 -1.096412,-1.45773 -2.570412,-2.98244 -1.598894,-1.65392 -3.625801,-3.96775 -4.505777,-5.1446 -0.879983,-1.17682 -2.124335,-3.27291 -2.763194,-4.65697 -0.638872,-1.38406 -1.276676,-3.32455 -1.4175,-4.31301 -0.140818,-0.98845 -0.100074,-1.89309 0.0907,-2.01097 0.07168,-0.0438 0.160697,-0.0701 0.257041,-0.0757 z m 52.107504,0.29105 c 0.19567,-0.008 0.41972,0.11983 0.55944,0.34021 0.18631,0.29413 0.34072,1.77693 0.34401,3.29618 0.004,1.51927 0.27189,4.31529 0.59726,6.21056 0.32543,1.89528 1.04332,5.01566 1.59516,6.93633 0.55183,1.92068 1.67699,4.94111 2.4986,6.71331 0.82161,1.7722 2.14304,4.30623 2.93706,5.62845 0.79403,1.32223 2.39757,3.68217 3.56456,5.24667 1.16698,1.56451 4.06087,4.94928 6.4298,7.51845 2.36892,2.56918 4.8885,5.47951 5.5982,6.46762 0.70968,0.98811 2.13163,3.53972 3.16387,5.67379 1.03225,2.13409 2.73653,5.19213 3.7838,6.7927 1.04726,1.60055 2.79478,3.71101 3.88586,4.691 1.09106,0.97997 2.95524,2.29002 4.14289,2.91061 1.16909,0.61085 2.13197,1.21461 2.16218,1.35324 v 0.004 0.004 c -0.0132,0.12927 -0.45147,0.42899 -0.98659,0.67281 -0.54357,0.24767 -1.55046,0.43831 -2.23399,0.42338 -0.68357,-0.0137 -2.02588,-0.26896 -2.98621,-0.56705 -0.96033,-0.29807 -3.31407,-1.34913 -5.22776,-2.33604 -1.91369,-0.98692 -4.44394,-2.42763 -5.62467,-3.20169 -1.18072,-0.77404 -3.57199,-2.85071 -5.3147,-4.61539 -1.7427,-1.76468 -5.28389,-5.99866 -7.86621,-9.40845 -2.58233,-3.40978 -5.25968,-6.73963 -5.94974,-7.3975 -0.69007,-0.65788 -3.60927,-2.52072 -6.49029,-4.1429 -2.88101,-1.62216 -5.62407,-3.29744 -6.09339,-3.71954 -0.46931,-0.42213 -1.12433,-1.56124 -1.45531,-2.53259 -0.33099,-0.97136 -0.60098,-2.26392 -0.60098,-2.87283 0,-0.66909 0.25339,-1.20535 0.6388,-1.35324 0.44584,-0.17111 1.272,0.41825 2.74808,1.95427 1.16116,1.20831 2.17029,2.1962 2.24154,2.1962 0.0709,0 -0.72036,-1.66705 -1.7577,-3.70443 -1.068,-2.09771 -2.16697,-4.96395 -2.53262,-6.60746 -0.38512,-1.73101 -0.53961,-3.45818 -0.38556,-4.27899 0.22617,-1.20585 0.3345,-1.31177 0.87697,-0.86184 0.3405,0.28242 1.52326,1.91021 2.62711,3.61747 1.10385,1.70727 2.28023,3.33105 2.61577,3.60614 0.11493,0.0943 0.19896,0.13556 0.24571,0.12101 0.002,-5.7e-4 0.0102,-0.004 0.0118,-0.004 l 0.004,-0.004 v -0.004 l 0.004,-0.004 c 0.0947,-0.10314 -0.0851,-0.67641 -0.57078,-1.87867 -0.50427,-1.24856 -1.18413,-3.29989 -1.512,-4.5587 -0.32793,-1.2588 -0.59726,-3.52761 -0.59726,-5.04253 0,-1.6689 0.2,-3.0306 0.51029,-3.45495 0.46265,-0.63273 0.6148,-0.46339 1.56492,1.72748 0.54231,1.25044 1.04684,2.2261 1.16803,2.27557 l 0.004,0.004 h 0.004 0.004 v -0.004 h 0.004 0.004 v -0.004 -0.004 l 0.004,-0.004 c 0.0622,-0.13633 -0.009,-1.13852 -0.16634,-2.27559 -0.16268,-1.17374 -0.23173,-3.34933 -0.15119,-4.83463 0.0806,-1.48529 0.42484,-3.5352 0.76356,-4.55492 0.33868,-1.01974 0.79588,-1.96513 1.01683,-2.10168 0.0556,-0.0344 0.11624,-0.0505 0.18141,-0.0527 z m 65.39426,58.26141 c -0.4233,-0.0204 -0.99022,0.0659 -1.43263,0.23437 -1.03987,0.39535 -1.05028,0.42892 -0.37802,1.17179 0.38132,0.42141 0.91356,0.76735 1.18314,0.76735 0.26955,0 0.76621,-0.10491 1.10377,-0.23436 0.33749,-0.12965 0.61239,-0.55542 0.61239,-0.94501 0,-0.38958 -0.3272,-0.81093 -0.72578,-0.93745 -0.0996,-0.0315 -0.22178,-0.0497 -0.36288,-0.0569 z m -37.30496,66.2372 c -0.307,0.008 -0.52118,0.14106 -0.82026,0.36668 -0.56368,0.42522 -0.76237,0.87954 -0.60479,1.37593 0.12932,0.40758 0.62878,0.98869 1.11133,1.29277 0.48255,0.30407 1.30802,0.7796 1.8333,1.05462 0.52527,0.27503 1.39738,0.39157 1.93915,0.26085 0.54173,-0.13064 1.37581,-0.38257 1.85598,-0.55943 0.48015,-0.17682 0.87319,-0.5021 0.87319,-0.72197 v -0.004 c -0.0212,-0.2277 -1.40143,-1.06154 -3.08449,-1.86354 -1.82702,-0.87059 -2.59173,-1.21372 -3.1034,-1.20205 z"
         style="stroke-width:5.12035" /><path
         style="font-size:22.5778px;stroke-width:5.12035"
         d="m 258.16839,343.55488 q 0,-18.06345 5.40291,-30.32079 4.03202,-9.03174 10.96708,-16.20872 7.01572,-7.17701 15.32168,-10.64455 11.04773,-4.67713 25.48237,-4.67713 26.12748,0 41.77171,16.20872 15.72489,16.20872 15.72489,45.078 0,28.62734 -15.5636,44.83605 -15.56359,16.12809 -41.61045,16.12809 -26.3694,0 -41.93299,-16.04744 -15.5636,-16.12807 -15.5636,-44.35223 z m 24.5953,-0.8064 q 0,20.07946 9.27367,30.48208 9.27363,10.32195 23.54698,10.32195 14.27336,0 23.38572,-10.2413 9.193,-10.322 9.193,-30.88528 0,-20.32139 -8.95108,-30.32081 -8.87044,-9.9994 -23.62764,-9.9994 -14.7572,0 -23.78891,10.16069 -9.03174,10.08006 -9.03174,30.48207 z M 420.6588,401.93853 378.40322,283.7197 h 25.88559 l 29.91757,87.49485 28.94991,-87.49485 h 25.32108 l -42.33621,118.21883 z m 79.02758,0 V 283.7197 h 87.65612 v 19.99882 h -63.78655 v 26.20814 h 59.35132 v 19.91819 h -59.35132 v 32.17551 h 66.04449 v 19.91817 z"
         id="path12" /></g></g></svg>
